<?xml version="1.0" encoding="UTF-8"?> <svg xmlns="http://www.w3.org/2000/svg" width="790" height="594" viewBox="0 0 790 594" fill="none"><g clip-path="url(#clip0_1954_4462)"><path d="M790 0H0V594H790V0Z" fill="#313133"></path><path d="M395.5 483C497.949 483 581 399.949 581 297.5C581 195.051 497.949 112 395.5 112C293.051 112 210 195.051 210 297.5C210 399.949 293.051 483 395.5 483Z" fill="#585755"></path><path d="M395.5 455C482.485 455 553 384.485 553 297.5C553 210.515 482.485 140 395.5 140C308.515 140 238 210.515 238 297.5C238 384.485 308.515 455 395.5 455Z" fill="#313133"></path><path d="M395.5 338C417.868 338 436 319.868 436 297.5C436 275.132 417.868 257 395.5 257C373.132 257 355 275.132 355 297.5C355 319.868 373.132 338 395.5 338Z" fill="#979593"></path></g><defs><clipPath id="clip0_1954_4462"><rect width="790" height="594" fill="white"></rect></clipPath></defs></svg> 